<svg width="360" height="576" viewBox="0 0 360 576" fill="none" xmlns="http://www.w3.org/2000/svg">
<path d="M11.8658 188.04L28.9167 449.16L178.381 522.6L328.17 449.16L347.81 188.04H11.9738M35.8233 209.76H57.4067" stroke="#85B6FF" stroke-linecap="round" stroke-linejoin="round"/>
<path d="M106.401 209.76H277.773" stroke="#85B6FF" stroke-linecap="round" stroke-linejoin="round"/>
<path d="M302.27 209.76H323.853L321.803 233.64" stroke="#85B6FF" stroke-linecap="round" stroke-linejoin="round"/>
<path d="M316.838 291.72L309.392 378.84" stroke="#85B6FF" stroke-linecap="round" stroke-linejoin="round"/>
<path d="M306.91 407.88L304.86 431.76L285.327 441.84" stroke="#85B6FF" stroke-linecap="round" stroke-linejoin="round"/>
<path d="M256.729 456.48L213.886 478.32" stroke="#85B6FF" stroke-linecap="round" stroke-linejoin="round"/>
<path d="M199.641 485.64L180 495.72L160.359 485.76" stroke="#85B6FF" stroke-linecap="round" stroke-linejoin="round"/>
<path d="M131.653 471L88.4867 449.04" stroke="#85B6FF" stroke-linecap="round" stroke-linejoin="round"/>
<path d="M74.0258 441.72L54.4929 431.76L52.4425 407.88" stroke="#85B6FF" stroke-linecap="round" stroke-linejoin="round"/>
<path d="M47.5863 349.8L40.2479 262.68" stroke="#85B6FF" stroke-linecap="round" stroke-linejoin="round"/>
<path d="M37.8738 233.64L35.8234 209.76M86.2204 188.04L117.84 54.6L216.26 83.04L192.303 188.04M109.962 88.08L153.129 101.16M98.8467 135L141.474 148.08M93.6667 158.28L122.588 166.8M104.458 111.96L132.301 120.24M87.9471 180.96L110.394 188.04M215.936 188.04L227.483 156L252.628 168L248.527 188.76M231.584 157.2L239.246 134.28M239.246 134.28L256.189 140.88M239.246 134.28C237.951 112.56 240.433 69.36 272.377 58.44C286.945 87.84 274.535 119.4 256.189 140.88M256.189 140.88L248.311 164.88M305.831 165.6L295.795 188.04M267.305 188.04L281.873 152.04M278.852 147.96L315.867 107.04L311.011 164.88C304.716 165.909 298.289 164.853 292.531 161.844C286.773 158.834 281.94 154.005 278.636 147.96" stroke="#85B6FF" stroke-linecap="round" stroke-linejoin="round"/>
</svg>
